<svg width="35" height="31" viewBox="0 0 35 31" fill="none" xmlns="http://www.w3.org/2000/svg">
<g id="Group">
<path id="Vector" d="M10.536 16.0177C11.9808 18.6326 14.3772 20.7528 17.3304 22.025C17.5368 22.1098 17.776 22.1516 18.0142 22.1375C18.2523 22.1233 18.4904 22.0532 18.6809 21.9401L23.0317 19.3533C23.2222 19.2402 23.4432 19.1694 23.6814 19.1552C23.9036 19.127 24.1417 19.1694 24.3481 19.2401L32.4775 22.35C32.7633 22.449 32.9854 22.6326 33.1442 22.8587C33.2871 23.099 33.3512 23.3673 33.3194 23.6358C33.0654 25.4168 32.0806 27.0706 30.5564 28.258C29.0322 29.4594 27.0797 30.1097 25.0474 30.1097C18.7758 30.1097 12.7749 27.8907 8.3451 23.9471C3.9153 20.0035 1.4375 14.6602 1.4375 9.09108C1.4375 7.28183 2.16755 5.54364 3.50125 4.18669C4.85083 2.82975 6.69304 1.95307 8.70947 1.72691C9.01114 1.69864 9.31287 1.74154 9.56691 1.88289C9.83683 2.0101 10.0275 2.22165 10.1546 2.46195L13.6479 9.71293C13.7273 9.89668 13.7742 10.1093 13.7425 10.3072C13.7266 10.5051 13.6478 10.7028 13.5208 10.8724L10.6306 14.8016C10.5036 14.9853 10.4247 15.1831 10.4088 15.3951C10.393 15.6072 10.4407 15.8198 10.536 16.0177Z" stroke="#1B1B1B" stroke-width="1.5" stroke-linecap="round" stroke-linejoin="round"/>
</g>
</svg>
