<svg width="45" height="29" viewBox="0 0 45 29" fill="none" xmlns="http://www.w3.org/2000/svg">
<mask id="mask0_1_1639" style="mask-type:alpha" maskUnits="userSpaceOnUse" x="0" y="0" width="45" height="29">
<path d="M41.2383 0.270996H3.13255C1.598 0.270996 0.354004 1.37846 0.354004 2.74459V25.3603C0.354004 26.7264 1.598 27.8339 3.13255 27.8339H41.2383C42.7728 27.8339 44.0168 26.7264 44.0168 25.3603V2.74459C44.0168 1.37846 42.7728 0.270996 41.2383 0.270996Z" fill="white" stroke="white" stroke-width="0.5"/>
</mask>
<g mask="url(#mask0_1_1639)">
<path fill-rule="evenodd" clip-rule="evenodd" d="M-0.0429688 9.3316H44.4137V-0.0823975H-0.0429688V9.3316Z" fill="#FFA44A"/>
<path fill-rule="evenodd" clip-rule="evenodd" d="M-0.0429688 28.1872H44.4137V18.7594H-0.0429688V28.1872Z" fill="#1A9F0B"/>
<path d="M22.1854 17.346C24.2336 17.346 25.885 15.8758 25.885 14.0524C25.885 12.2291 24.2336 10.7451 22.1854 10.7451C20.1372 10.7451 18.4858 12.2291 18.4858 14.0524C18.4858 15.8758 20.1372 17.346 22.1854 17.346Z" fill="#181A93" fill-opacity="0.15" stroke="#181A93" stroke-width="0.666667"/>
<path fill-rule="evenodd" clip-rule="evenodd" d="M22.1855 14.9855C22.773 14.9855 23.2491 14.5754 23.2491 14.0524C23.2491 13.5294 22.773 13.1055 22.1855 13.1055C21.598 13.1055 21.1218 13.5294 21.1218 14.0524C21.1218 14.5754 21.598 14.9855 22.1855 14.9855Z" fill="#181A93"/>
</g>
</svg>
