<svg width="20" height="18" viewBox="0 0 20 18" fill="none" xmlns="http://www.w3.org/2000/svg">
    <g id="Group">
        <path id="Vector"
              d="M9.57561 3.83513L11.6409 2.08278C11.9585 1.72941 12.4338 1.44693 13.0689 1.24905C13.5453 1.05116 14.1804 0.952271 14.6567 0.952271C15.2918 0.952271 15.769 1.05116 16.4041 1.24905C16.8804 1.44693 17.3558 1.72941 17.8322 2.08278C18.1497 2.45028 18.4682 2.87419 18.7857 3.35477C18.9445 3.82122 19.102 4.33049 19.102 4.83934C19.102 5.34819 18.9445 5.85677 18.7857 6.32322C18.4682 6.8038 18.1497 7.22804 17.8322 7.58141L14.9745 10.0833C14.4982 10.4508 14.0213 10.7329 13.545 10.9308C13.0686 11.1287 12.4335 11.2276 11.9572 11.2276C11.3221 11.2276 10.6876 11.1287 10.2113 10.9308C9.735 10.7329 9.25806 10.4508 8.78174 10.0833"
              stroke="#333" stroke-linecap="round" stroke-linejoin="round"/>
        <path id="Vector_2"
              d="M10.8472 13.8289L8.78193 15.5812C8.46439 15.9487 7.98899 16.2316 7.3539 16.4294C6.87758 16.6273 6.24248 16.7262 5.76616 16.7262C5.13106 16.7262 4.65381 16.6273 4.01872 16.4294C3.5424 16.2316 3.067 15.9487 2.59068 15.5812C2.27313 15.2279 1.95466 14.7902 1.63711 14.3237C1.47833 13.8431 1.3208 13.348 1.3208 12.8392C1.3208 12.3162 1.47833 11.8214 1.63711 11.3408C1.95466 10.8743 2.27313 10.4508 2.59068 10.0833L5.4483 7.58139C5.76585 7.22802 6.40157 6.94486 6.87789 6.74697C7.35421 6.54908 7.98931 6.4502 8.46563 6.4502C9.10072 6.4502 9.7352 6.54908 10.2115 6.74697C10.6878 6.94486 11.1648 7.22802 11.6411 7.58139"
              stroke="#333" stroke-linecap="round" stroke-linejoin="round"/>
    </g>
</svg>
