<svg width="41" height="23" viewBox="0 0 41 23" fill="none" xmlns="http://www.w3.org/2000/svg">
    <path d="M2.34771 0.995728H24.5761C26.0368 0.995728 27.4494 1.5191 28.4973 2.452C29.5452 3.37076 30.1331 4.62837 30.1331 5.94291V20.7844C30.1331 21.1095 29.9747 21.4207 29.7207 21.661C29.4508 21.8871 29.1013 22.0143 28.7361 22.0143H6.50777C5.03117 22.0143 3.61852 21.5055 2.58649 20.5726C1.53858 19.6397 0.950684 18.3817 0.950684 17.0672V2.22562C0.950684 1.90052 1.09321 1.58975 1.36312 1.36359C1.61716 1.1233 1.96665 0.995728 2.34771 0.995728Z"
          stroke="#1B1B1B" stroke-width="1.5" stroke-linecap="round" stroke-linejoin="round"/>
    <path d="M30.1177 9.03834L39.8503 4.09116V18.9327L30.1177 13.9855" stroke="#1B1B1B" stroke-width="1.5"
          stroke-linecap="round" stroke-linejoin="round"/>
</svg>
